<svg xmlns="http://www.w3.org/2000/svg" viewBox="0 0 558.51 505"><defs><style>.cls-1{fill:#fff;}.cls-2,.cls-7{fill:none;stroke-miterlimit:10;}.cls-2{stroke:#d9587e;stroke-width:10px;}.cls-3{fill:#ecacbf;}.cls-4{fill:#ef95b3;}.cls-5{fill:#e281a7;}.cls-6{fill:#7f654f;}.cls-7{stroke:#7f654f;stroke-width:5px;}.cls-8{fill:#a0bbb7;}.cls-9{fill:#ceeae5;}.cls-10{font-size:42.82px;fill:#b3d5d0;font-family:MyriadPro-Regular, Myriad Pro;}.cls-11{fill:#8fb5af;}.cls-12{fill:#f1f1ff;}</style></defs><title>Cart</title><g id="Layer_2" data-name="Layer 2"><g id="Pop"><rect class="cls-1" width="558.51" height="505"/><path class="cls-2" d="M418.11,224.5A145.66,145.66,0,1,1,272.44,78.83,145.28,145.28,0,0,1,418.11,224.5Z"/><path class="cls-3" d="M370.6,190.5V329a145.65,145.65,0,0,1-191,2V190.5Z"/><rect class="cls-4" x="183.6" y="151" width="184.5" height="39.5"/><polygon class="cls-5" points="183.6 151 200.1 167.17 183.6 190.5 183.6 151"/><polygon class="cls-5" points="368.1 151 350.77 170.84 368.1 190.5 368.1 151"/><circle class="cls-6" cx="340.23" cy="239.13" r="7.38"/><path class="cls-7" d="M210.6,239.34c1.69,35.09,30.5,63,65,63.75,35.42.73,65.87-27.47,67.75-63.5"/><circle class="cls-6" cx="210.61" cy="239.58" r="2.51"/><circle class="cls-6" cx="343.36" cy="239.45" r="2.51"/><circle class="cls-6" cx="210.98" cy="239.13" r="7.38"/><path class="cls-8" d="M430.55,332.57,408,307a4.76,4.76,0,0,0-3.56-1.61H318.75a4.75,4.75,0,0,0-4.75,4.75v55.25a4.75,4.75,0,0,0,4.75,4.75h85.72a4.74,4.74,0,0,0,3.57-1.62l22.52-25.66a4.74,4.74,0,0,0,1.18-3.13v-4A4.74,4.74,0,0,0,430.55,332.57Zm-20.26,10.6a6.17,6.17,0,1,1,6.16-6.17A6.17,6.17,0,0,1,410.29,343.17Z"/><path class="cls-9" d="M382.76,337.51a5.61,5.61,0,0,0,3.75,5.29,3.61,3.61,0,0,0,.56.17h5.57v11.41a1.34,1.34,0,0,1-1.33,1.34H329a1.34,1.34,0,0,1-1.33-1.34V320.17a1.34,1.34,0,0,1,1.33-1.33h62.34a1.34,1.34,0,0,1,1.33,1.33l.06,12.07-6.19,0h0A5.61,5.61,0,0,0,382.76,337.51Z"/><text class="cls-10" transform="translate(345.67 351.14)">$</text><rect class="cls-11" x="327.54" y="361.01" width="5.25" height="3.67"/><rect class="cls-11" x="342.37" y="360.92" width="5.25" height="3.67"/><rect class="cls-11" x="355.12" y="361.09" width="5.25" height="3.67"/><rect class="cls-11" x="368.12" y="361.09" width="5.25" height="3.67"/><rect class="cls-11" x="381.04" y="361.01" width="5.25" height="3.67"/><rect class="cls-11" x="395.87" y="361.01" width="5.25" height="3.67"/><rect class="cls-11" x="333.04" y="311.09" width="5.25" height="3.67"/><rect class="cls-11" x="346.04" y="311.09" width="5.25" height="3.67"/><rect class="cls-11" x="358.87" y="311.17" width="5.25" height="3.67"/><rect class="cls-11" x="371.79" y="311.09" width="5.25" height="3.67"/><rect class="cls-11" x="384.7" y="311.17" width="5.25" height="3.67"/><rect class="cls-11" x="319.95" y="321.01" width="3.67" height="5.58"/><rect class="cls-11" x="319.87" y="333.92" width="3.67" height="5.58"/><rect class="cls-11" x="319.95" y="346.84" width="3.67" height="5.58"/><rect class="cls-11" x="320.04" y="359.01" width="3.67" height="5.58"/><rect class="cls-11" x="397.62" y="311.26" width="3.67" height="5.58"/><rect class="cls-11" x="397.62" y="324.67" width="3.67" height="5.58"/><rect class="cls-11" x="397.54" y="336.92" width="3.67" height="5.58"/><rect class="cls-11" x="397.7" y="349.92" width="3.67" height="5.58"/><rect class="cls-11" x="320.04" y="311.26" width="5.25" height="3.67"/><ellipse class="cls-12" cx="279.26" cy="433.74" rx="89" ry="11.38"/><circle class="cls-12" cx="75.69" cy="101.5" r="8.5"/><circle class="cls-12" cx="174.19" cy="63" r="6"/><circle class="cls-12" cx="439.19" cy="150" r="3"/><circle class="cls-12" cx="149.19" cy="374" r="3"/><circle class="cls-12" cx="439.19" cy="291" r="9"/><circle class="cls-12" cx="435.19" cy="81" r="8"/><circle class="cls-12" cx="95.19" cy="358" r="6"/><circle class="cls-12" cx="499.69" cy="291.5" r="1.5"/></g></g></svg>