<svg xmlns="http://www.w3.org/2000/svg" viewBox="0 0 558.51 505"><defs><style>.cls-1{fill:#fff;}.cls-2{fill:#d9587e;stroke:#d9587e;}.cls-2,.cls-3{stroke-miterlimit:10;stroke-width:10px;}.cls-3{fill:#efefef;stroke:#ecacbf;}.cls-4{fill:#444;}.cls-5{fill:#f1f1ff;}</style></defs><title>enter-password</title><g id="Layer_2" data-name="Layer 2"><g id="Pop"><rect class="cls-1" width="558.51" height="505"/><path class="cls-2" d="M385.26,214.44h-12V152.36a94,94,0,0,0-188,.08c0,.9,0,1.8,0,2.7v59.3H173.25c-7.41,0-13.41,7.4-13.41,16.53v96.61c0,9.13,6,16.53,13.41,16.53h53.54a52.5,52.5,0,0,1,104.92,0h53.55c7.41,0,13.41-7.4,13.41-16.53V231C398.67,221.84,392.67,214.44,385.26,214.44Zm-34.25,0H208.12V154.55c0-.7,0-1.4,0-2.11v-.08a71.46,71.46,0,1,1,142.92,0Z"/><rect id="_Rectangle_" data-name="&lt;Rectangle&gt;" class="cls-3" x="78.42" y="379.25" width="401.66" height="63.25" rx="13.87" ry="13.87"/><path class="cls-4" d="M389.65,409v3.7a1.07,1.07,0,0,1-1.16,1h-9.58l7.33,5.09a.85.85,0,0,1,.14,1.35L383.52,423a1.33,1.33,0,0,1-1.63.12l-8.9-6.18v9.62a1.07,1.07,0,0,1-1.16,1h-4.48a1.07,1.07,0,0,1-1.16-1v-9.62l-8.9,6.18a1.33,1.33,0,0,1-1.63-.12l-2.88-2.84a.85.85,0,0,1,.14-1.35l7.33-5.09H350.7a1.07,1.07,0,0,1-1.16-1V409a1.07,1.07,0,0,1,1.16-1h9.58L352.94,403a.85.85,0,0,1-.14-1.35l2.88-2.84a1.33,1.33,0,0,1,1.63-.12l8.9,6.18v-9.62a1.07,1.07,0,0,1,1.16-1h4.48a1.07,1.07,0,0,1,1.16,1v9.62l8.9-6.18a1.33,1.33,0,0,1,1.63.12l2.88,2.84a.85.85,0,0,1-.14,1.35l-7.33,5.09h9.58A1.07,1.07,0,0,1,389.65,409Z"/><path class="cls-4" d="M329.4,409v3.7a1.07,1.07,0,0,1-1.16,1h-9.58l7.33,5.09a.85.85,0,0,1,.14,1.35L323.27,423a1.33,1.33,0,0,1-1.63.12l-8.9-6.18v9.62a1.07,1.07,0,0,1-1.16,1h-4.48a1.07,1.07,0,0,1-1.16-1v-9.62l-8.9,6.18a1.33,1.33,0,0,1-1.63-.12l-2.88-2.84a.85.85,0,0,1,.14-1.35l7.33-5.09h-9.58a1.07,1.07,0,0,1-1.16-1V409a1.07,1.07,0,0,1,1.16-1H300L292.69,403a.85.85,0,0,1-.14-1.35l2.88-2.84a1.33,1.33,0,0,1,1.63-.12l8.9,6.18v-9.62a1.07,1.07,0,0,1,1.16-1h4.48a1.07,1.07,0,0,1,1.16,1v9.62l8.9-6.18a1.33,1.33,0,0,1,1.63.12l2.88,2.84A.85.85,0,0,1,326,403l-7.33,5.09h9.58A1.07,1.07,0,0,1,329.4,409Z"/><path class="cls-4" d="M269.15,409v3.7a1.07,1.07,0,0,1-1.16,1h-9.58l7.33,5.09a.85.85,0,0,1,.14,1.35L263,423a1.33,1.33,0,0,1-1.63.12l-8.9-6.18v9.62a1.07,1.07,0,0,1-1.16,1h-4.48a1.07,1.07,0,0,1-1.16-1v-9.62l-8.9,6.18a1.33,1.33,0,0,1-1.63-.12l-2.88-2.84a.85.85,0,0,1,.14-1.35l7.33-5.09H230.2a1.07,1.07,0,0,1-1.16-1V409a1.07,1.07,0,0,1,1.16-1h9.58L232.44,403a.85.85,0,0,1-.14-1.35l2.88-2.84a1.33,1.33,0,0,1,1.63-.12l8.9,6.18v-9.62a1.07,1.07,0,0,1,1.16-1h4.48a1.07,1.07,0,0,1,1.16,1v9.62l8.9-6.18a1.33,1.33,0,0,1,1.63.12l2.88,2.84a.85.85,0,0,1-.14,1.35l-7.33,5.09H268A1.07,1.07,0,0,1,269.15,409Z"/><path class="cls-4" d="M208.9,409v3.7a1.07,1.07,0,0,1-1.16,1h-9.58l7.33,5.09a.85.85,0,0,1,.14,1.35L202.77,423a1.33,1.33,0,0,1-1.63.12l-8.9-6.18v9.62a1.07,1.07,0,0,1-1.16,1h-4.48a1.07,1.07,0,0,1-1.16-1v-9.62l-8.9,6.18a1.33,1.33,0,0,1-1.63-.12l-2.88-2.84a.85.85,0,0,1,.14-1.35l7.33-5.09H170a1.07,1.07,0,0,1-1.16-1V409a1.07,1.07,0,0,1,1.16-1h9.58L172.19,403a.85.85,0,0,1-.14-1.35l2.88-2.84a1.33,1.33,0,0,1,1.63-.12l8.9,6.18v-9.62a1.07,1.07,0,0,1,1.16-1h4.48a1.07,1.07,0,0,1,1.16,1v9.62l8.9-6.18a1.33,1.33,0,0,1,1.63.12l2.88,2.84a.85.85,0,0,1-.14,1.35l-7.33,5.09h9.58A1.07,1.07,0,0,1,208.9,409Z"/><path class="cls-4" d="M148.65,409v3.7a1.07,1.07,0,0,1-1.16,1h-9.58l7.33,5.09a.85.85,0,0,1,.14,1.35L142.52,423a1.33,1.33,0,0,1-1.63.12l-8.9-6.18v9.62a1.07,1.07,0,0,1-1.16,1h-4.48a1.07,1.07,0,0,1-1.16-1v-9.62l-8.9,6.18a1.33,1.33,0,0,1-1.63-.12l-2.88-2.84a.85.85,0,0,1,.14-1.35l7.33-5.09H109.7a1.07,1.07,0,0,1-1.16-1V409a1.07,1.07,0,0,1,1.16-1h9.58L111.95,403a.85.85,0,0,1-.14-1.35l2.88-2.84a1.33,1.33,0,0,1,1.63-.12l8.9,6.18v-9.62a1.07,1.07,0,0,1,1.16-1h4.48a1.07,1.07,0,0,1,1.16,1v9.62l8.9-6.18a1.33,1.33,0,0,1,1.63.12l2.88,2.84a.85.85,0,0,1-.14,1.35l-7.33,5.09h9.58A1.07,1.07,0,0,1,148.65,409Z"/><rect class="cls-4" x="409.8" y="422.22" width="40.17" height="5.24" rx="1.04" ry="1.04"/><circle class="cls-5" cx="205.14" cy="42.27" r="9"/><circle class="cls-5" cx="350.14" cy="53.27" r="9"/><circle class="cls-5" cx="158.14" cy="140.27" r="9"/><circle class="cls-5" cx="102.14" cy="52.27" r="3.77"/><circle class="cls-5" cx="438.14" cy="316.27" r="9"/><circle class="cls-5" cx="448.14" cy="119.27" r="5.01"/><circle class="cls-5" cx="59.14" cy="317.27" r="9"/><circle class="cls-5" cx="102.14" cy="238.27" r="4.33"/></g></g></svg>