<svg xmlns="http://www.w3.org/2000/svg" viewBox="0 0 556.47 558.9"><defs><style>.cls-1,.cls-5{fill:#fff;}.cls-2{fill:#f1f1ff;}.cls-3{fill:#d89da3;}.cls-3,.cls-5,.cls-6{stroke:#d9587e;stroke-miterlimit:10;}.cls-3,.cls-5{stroke-width:10px;}.cls-4{fill:#d9587e;}.cls-6{fill:none;stroke-width:9px;}</style></defs><title>Asset 1</title><g id="Layer_2" data-name="Layer 2"><g id="Pop"><rect class="cls-1" width="556.47" height="558.9"/><ellipse class="cls-2" cx="278.24" cy="446.65" rx="89" ry="11.38"/><path class="cls-3" d="M357.78,173.41a92.27,92.27,0,0,1,54.86,151.93l4.33,27-25.87-8.93a92.26,92.26,0,1,1-33.32-170Z"/><circle class="cls-4" cx="302.32" cy="265.92" r="9.83"/><circle class="cls-4" cx="344.65" cy="265.92" r="9.83"/><circle class="cls-4" cx="386.98" cy="266.58" r="9.83"/><path class="cls-5" d="M309.11,209.86a101.7,101.7,0,0,1-155.84,86.07l-28.62,9.4,5.23-29.71a101.68,101.68,0,1,1,179.23-65.76Z"/><circle class="cls-4" cx="164.15" cy="202.92" r="9.83"/><circle class="cls-4" cx="250.98" cy="202.92" r="9.83"/><path class="cls-6" d="M187,236.67s20.67-19.67,41.67,0"/><circle class="cls-4" cx="187.68" cy="236.01" r="4.56"/><circle class="cls-4" cx="228.62" cy="236.7" r="4.56"/><circle class="cls-2" cx="178.36" cy="38.9" r="10"/><circle class="cls-2" cx="349.36" cy="120.9" r="10"/><circle class="cls-2" cx="217.36" cy="342.9" r="4"/><circle class="cls-2" cx="83.11" cy="273.9" r="4"/><circle class="cls-2" cx="470.36" cy="328.9" r="7"/></g></g></svg>